# xmcd CD database file
# 
# Track frame offsets:
# 	150
# 	4093
# 	21308
# 	35360
# 	66709
# 	85744
# 	90860
# 	109797
# 	128804
# 	150898
# 	179471
# 	199951
# 
# Disc length: 2981 seconds
# 
# Submitted via: Nero 5.5.9.0
# 
# Revision: 0
# Processed by: cddbd v1.4PL0 Copyright (c) Steve Scherf et al.
#
DISCID=920ba30c
DTITLE=Larry Joe Taylor - Port A to Port B
DYEAR=1900
DGENRE=
TTITLE0=Introduction
TTITLE1=My Kinda Day On Padre
TTITLE2=Let's Pretend
TTITLE3=Old Screen Door
TTITLE4=Doin' The Best I Can
TTITLE5=Drive In Story
TTITLE6=Drive In
TTITLE7=Men Of Steel
TTITLE8=Matagorda
TTITLE9=Third Coast
TTITLE10=Terlingua Sky
TTITLE11=Take It Breezy
EXTD=
EXTT0=
EXTT1=
EXTT2=
EXTT3=
EXTT4=
EXTT5=
EXTT6=
EXTT7=
EXTT8=
EXTT9=
EXTT10=
EXTT11=
PLAYORDER=
